<svg xmlns="http://www.w3.org/2000/svg" width="1600" height="1000" viewBox="0 0 1600 1000"><rect x="0" y="0" width="1600" height="1000" rx="0" fill="#F7F8FA"/><rect x="0" y="0" width="1600" height="76" rx="0" fill="#FFFFFF"/><rect x="0" y="75" width="1600" height="1" rx="0" fill="#DCE1E8"/><text x="32" y="48" font-family="Arial, Helvetica, sans-serif" font-size="23" fill="#1B2A4A" font-weight="bold" text-anchor="start" font-style="normal">BMG</text><line x1="92" y1="26" x2="92" y2="52" stroke="#DCE1E8" stroke-width="1"/><text x="108" y="48" font-family="Arial, Helvetica, sans-serif" font-size="16" fill="#1B2A4A" font-weight="bold" text-anchor="start" font-style="normal">Construction Operations Workflow System</text><rect x="1314.0" y="21" width="254.0" height="34" rx="17" fill="#ECEFF3"/><text x="1441.0" y="43" font-family="Arial, Helvetica, sans-serif" font-size="12" fill="#5A6577" font-weight="600" text-anchor="middle" font-style="normal">Sample Project: 24,000 SF Office TI</text><rect x="0" y="76" width="248" height="924" rx="0" fill="#FFFFFF"/><rect x="248" y="76" width="1" height="924" rx="0" fill="#DCE1E8"/><text x="28" y="112" font-family="Arial, Helvetica, sans-serif" font-size="10" fill="#8A93A3" font-weight="bold" text-anchor="start" font-style="normal" letter-spacing="0.8">WORKFLOW MODULES</text><rect x="23.5" y="145.5" width="13.0" height="12.0" rx="2" fill="none" stroke="#5A6577" stroke-width="1.6" stroke-linecap="round" stroke-linejoin="round"/><line x1="30" y1="149" x2="30" y2="156" fill="none" stroke="#5A6577" stroke-width="1.6" stroke-linecap="round" stroke-linejoin="round"/><line x1="26.5" y1="152.5" x2="33.5" y2="152.5" fill="none" stroke="#5A6577" stroke-width="1.6" stroke-linecap="round" stroke-linejoin="round"/><text x="52" y="155.5" font-family="Arial, Helvetica, sans-serif" font-size="12.5" fill="#5A6577" font-weight="normal" text-anchor="start" font-style="normal">Project Intake</text><path d="M 24.5 190.5 L 33.5 190.5 L 36.5 193.5 L 36.5 203.5 L 24.5 203.5 Z" fill="none" stroke="#5A6577" stroke-width="1.6" stroke-linecap="round" stroke-linejoin="round"/><line x1="27.5" y1="196" x2="33.5" y2="196" fill="none" stroke="#5A6577" stroke-width="1.6" stroke-linecap="round" stroke-linejoin="round"/><line x1="27.5" y1="200" x2="33.5" y2="200" fill="none" stroke="#5A6577" stroke-width="1.6" stroke-linecap="round" stroke-linejoin="round"/><text x="52" y="201.5" font-family="Arial, Helvetica, sans-serif" font-size="12.5" fill="#5A6577" font-weight="normal" text-anchor="start" font-style="normal">Documents</text><rect x="0" y="220" width="248" height="46" rx="0" fill="#F1F3F6"/><rect x="0" y="220" width="4" height="46" rx="0" fill="#C8A951"/><rect x="29.5" y="234.5" width="9.0" height="7.0" rx="1.5" fill="#FFFFFF" stroke="#1B2A4A" stroke-width="1.6" stroke-linecap="round" stroke-linejoin="round"/><rect x="26.5" y="237.5" width="9.0" height="7.0" rx="1.5" fill="#FFFFFF" stroke="#1B2A4A" stroke-width="1.6" stroke-linecap="round" stroke-linejoin="round"/><rect x="23.5" y="240.5" width="9.0" height="7.0" rx="1.5" fill="#FFFFFF" stroke="#1B2A4A" stroke-width="1.6" stroke-linecap="round" stroke-linejoin="round"/><text x="52" y="247.5" font-family="Arial, Helvetica, sans-serif" font-size="12.5" fill="#1B2A4A" font-weight="bold" text-anchor="start" font-style="normal">Bid Packages</text><circle cx="26" cy="285" r="3" fill="none" stroke="#5A6577" stroke-width="1.6" stroke-linecap="round" stroke-linejoin="round"/><circle cx="35" cy="286" r="3" fill="none" stroke="#5A6577" stroke-width="1.6" stroke-linecap="round" stroke-linejoin="round"/><circle cx="30" cy="294" r="3" fill="none" stroke="#5A6577" stroke-width="1.6" stroke-linecap="round" stroke-linejoin="round"/><line x1="27" y1="288" x2="29" y2="291" fill="none" stroke="#5A6577" stroke-width="1.6" stroke-linecap="round" stroke-linejoin="round"/><line x1="34" y1="289" x2="31" y2="292" fill="none" stroke="#5A6577" stroke-width="1.6" stroke-linecap="round" stroke-linejoin="round"/><text x="52" y="293.5" font-family="Arial, Helvetica, sans-serif" font-size="12.5" fill="#5A6577" font-weight="normal" text-anchor="start" font-style="normal">Vendor / Sub Coordination</text><circle cx="30" cy="335" r="6.5" fill="none" stroke="#5A6577" stroke-width="1.6" stroke-linecap="round" stroke-linejoin="round"/><path d="M 26 335 L 29 338.5 L 35 331" fill="none" stroke="#5A6577" stroke-width="1.6" stroke-linecap="round" stroke-linejoin="round"/><text x="52" y="339.5" font-family="Arial, Helvetica, sans-serif" font-size="12.5" fill="#5A6577" font-weight="normal" text-anchor="start" font-style="normal">Approvals</text><line x1="25.5" y1="386.5" x2="36.5" y2="386.5" fill="none" stroke="#5A6577" stroke-width="1.6" stroke-linecap="round" stroke-linejoin="round"/><rect x="25.5" y="382" width="3.5" height="4.5" fill="none" stroke="#5A6577" stroke-width="1.6" stroke-linecap="round" stroke-linejoin="round"/><rect x="28" y="377" width="3.5" height="9.5" fill="none" stroke="#5A6577" stroke-width="1.6" stroke-linecap="round" stroke-linejoin="round"/><rect x="35" y="376.5" width="3.5" height="10.0" fill="none" stroke="#5A6577" stroke-width="1.6" stroke-linecap="round" stroke-linejoin="round"/><text x="52" y="385.5" font-family="Arial, Helvetica, sans-serif" font-size="12.5" fill="#5A6577" font-weight="normal" text-anchor="start" font-style="normal">Budget / Draw Tracking</text><polyline points="24.5,430 28,425 32,428 35.5,422" fill="none" stroke="#5A6577" stroke-width="1.6" stroke-linecap="round" stroke-linejoin="round"/><line x1="24.5" y1="432.5" x2="36.5" y2="432.5" fill="none" stroke="#5A6577" stroke-width="1.6" stroke-linecap="round" stroke-linejoin="round"/><line x1="24.5" y1="420.5" x2="24.5" y2="432.5" fill="none" stroke="#5A6577" stroke-width="1.6" stroke-linecap="round" stroke-linejoin="round"/><text x="52" y="431.5" font-family="Arial, Helvetica, sans-serif" font-size="12.5" fill="#5A6577" font-weight="normal" text-anchor="start" font-style="normal">Reporting</text><circle cx="30" cy="473" r="6.5" fill="none" stroke="#5A6577" stroke-width="1.6" stroke-linecap="round" stroke-linejoin="round"/><path d="M 27 473 L 33 473 M 30 470 L 33 473 L 30 476" fill="none" stroke="#5A6577" stroke-width="1.6" stroke-linecap="round" stroke-linejoin="round"/><text x="52" y="477.5" font-family="Arial, Helvetica, sans-serif" font-size="12.5" fill="#5A6577" font-weight="normal" text-anchor="start" font-style="normal">Next Actions</text><text x="288" y="128" font-family="Arial, Helvetica, sans-serif" font-size="19" fill="#1B2A4A" font-weight="bold" text-anchor="start" font-style="normal">Overview</text><text x="288" y="150" font-family="Arial, Helvetica, sans-serif" font-size="12" fill="#5A6577" font-weight="normal" text-anchor="start" font-style="normal">Eight connected modules for coordinating a construction project end to end.</text><rect x="288" y="176" width="303" height="236" rx="10" fill="#FFFFFF" stroke="#DCE1E8" stroke-width="1"/><rect x="310" y="200" width="40" height="40" rx="9" fill="#ECEFF3"/><rect x="322" y="213" width="16" height="15" rx="2" fill="none" stroke="#1B2A4A" stroke-width="1.8" stroke-linecap="round" stroke-linejoin="round"/><line x1="330" y1="218" x2="330" y2="225" fill="none" stroke="#1B2A4A" stroke-width="1.8" stroke-linecap="round" stroke-linejoin="round"/><line x1="326.5" y1="221.5" x2="333.5" y2="221.5" fill="none" stroke="#1B2A4A" stroke-width="1.8" stroke-linecap="round" stroke-linejoin="round"/><text x="571" y="214" font-family="Arial, Helvetica, sans-serif" font-size="12.5" fill="#8A93A3" font-weight="bold" text-anchor="end" font-style="normal">01</text><text x="310" y="276" font-family="Arial, Helvetica, sans-serif" font-size="14.5" fill="#1B2A4A" font-weight="bold" text-anchor="start" font-style="normal">Project Intake</text><rect x="310" y="286" width="32" height="2.5" rx="1" fill="#C8A951"/><text x="310" y="314" font-family="Arial, Helvetica, sans-serif" font-size="11.5" fill="#5A6577" font-weight="normal" text-anchor="start" font-style="normal">New projects and key</text><text x="310" y="332" font-family="Arial, Helvetica, sans-serif" font-size="11.5" fill="#5A6577" font-weight="normal" text-anchor="start" font-style="normal">details captured in one place.</text><rect x="310" y="366" width="129.1" height="22" rx="11" fill="#ECEFF3"/><text x="374.55" y="381" font-family="Arial, Helvetica, sans-serif" font-size="10.5" fill="#5A6577" font-weight="600" text-anchor="middle" font-style="normal">2 awaiting review</text><rect x="611" y="176" width="303" height="236" rx="10" fill="#FFFFFF" stroke="#DCE1E8" stroke-width="1"/><rect x="633" y="200" width="40" height="40" rx="9" fill="#ECEFF3"/><path d="M 646 212 L 658 212 L 661 215 L 661 228 L 646 228 Z" fill="none" stroke="#1B2A4A" stroke-width="1.8" stroke-linecap="round" stroke-linejoin="round"/><line x1="649" y1="219" x2="658" y2="219" fill="none" stroke="#1B2A4A" stroke-width="1.8" stroke-linecap="round" stroke-linejoin="round"/><line x1="649" y1="223" x2="658" y2="223" fill="none" stroke="#1B2A4A" stroke-width="1.8" stroke-linecap="round" stroke-linejoin="round"/><text x="894" y="214" font-family="Arial, Helvetica, sans-serif" font-size="12.5" fill="#8A93A3" font-weight="bold" text-anchor="end" font-style="normal">02</text><text x="633" y="276" font-family="Arial, Helvetica, sans-serif" font-size="14.5" fill="#1B2A4A" font-weight="bold" text-anchor="start" font-style="normal">Documents</text><rect x="633" y="286" width="32" height="2.5" rx="1" fill="#C8A951"/><text x="633" y="314" font-family="Arial, Helvetica, sans-serif" font-size="11.5" fill="#5A6577" font-weight="normal" text-anchor="start" font-style="normal">Drawings, specs, and files</text><text x="633" y="332" font-family="Arial, Helvetica, sans-serif" font-size="11.5" fill="#5A6577" font-weight="normal" text-anchor="start" font-style="normal">organized by project.</text><rect x="633" y="366" width="85.0" height="22" rx="11" fill="#ECEFF3"/><text x="675.5" y="381" font-family="Arial, Helvetica, sans-serif" font-size="10.5" fill="#5A6577" font-weight="600" text-anchor="middle" font-style="normal">Up to date</text><rect x="934" y="176" width="303" height="236" rx="10" fill="#FFFFFF" stroke="#DCE1E8" stroke-width="1"/><rect x="956" y="200" width="40" height="40" rx="9" fill="#ECEFF3"/><rect x="974" y="210" width="12" height="10" rx="1.5" fill="#FFFFFF" stroke="#1B2A4A" stroke-width="1.8" stroke-linecap="round" stroke-linejoin="round"/><rect x="971" y="213" width="12" height="10" rx="1.5" fill="#FFFFFF" stroke="#1B2A4A" stroke-width="1.8" stroke-linecap="round" stroke-linejoin="round"/><rect x="968" y="216" width="12" height="10" rx="1.5" fill="#FFFFFF" stroke="#1B2A4A" stroke-width="1.8" stroke-linecap="round" stroke-linejoin="round"/><text x="1217" y="214" font-family="Arial, Helvetica, sans-serif" font-size="12.5" fill="#8A93A3" font-weight="bold" text-anchor="end" font-style="normal">03</text><text x="956" y="276" font-family="Arial, Helvetica, sans-serif" font-size="14.5" fill="#1B2A4A" font-weight="bold" text-anchor="start" font-style="normal">Bid Packages</text><rect x="956" y="286" width="32" height="2.5" rx="1" fill="#C8A951"/><text x="956" y="314" font-family="Arial, Helvetica, sans-serif" font-size="11.5" fill="#5A6577" font-weight="normal" text-anchor="start" font-style="normal">Scopes divided into clear</text><text x="956" y="332" font-family="Arial, Helvetica, sans-serif" font-size="11.5" fill="#5A6577" font-weight="normal" text-anchor="start" font-style="normal">trade packages.</text><rect x="956" y="366" width="85.0" height="22" rx="11" fill="#ECEFF3"/><text x="998.5" y="381" font-family="Arial, Helvetica, sans-serif" font-size="10.5" fill="#5A6577" font-weight="600" text-anchor="middle" font-style="normal">6 packages</text><rect x="1257" y="176" width="303" height="236" rx="10" fill="#FFFFFF" stroke="#DCE1E8" stroke-width="1"/><rect x="1279" y="200" width="40" height="40" rx="9" fill="#ECEFF3"/><circle cx="1295" cy="216" r="3" fill="none" stroke="#1B2A4A" stroke-width="1.8" stroke-linecap="round" stroke-linejoin="round"/><circle cx="1304" cy="217" r="3" fill="none" stroke="#1B2A4A" stroke-width="1.8" stroke-linecap="round" stroke-linejoin="round"/><circle cx="1299" cy="225" r="3" fill="none" stroke="#1B2A4A" stroke-width="1.8" stroke-linecap="round" stroke-linejoin="round"/><line x1="1296" y1="219" x2="1298" y2="222" fill="none" stroke="#1B2A4A" stroke-width="1.8" stroke-linecap="round" stroke-linejoin="round"/><line x1="1303" y1="220" x2="1300" y2="223" fill="none" stroke="#1B2A4A" stroke-width="1.8" stroke-linecap="round" stroke-linejoin="round"/><text x="1540" y="214" font-family="Arial, Helvetica, sans-serif" font-size="12.5" fill="#8A93A3" font-weight="bold" text-anchor="end" font-style="normal">04</text><text x="1279" y="276" font-family="Arial, Helvetica, sans-serif" font-size="14.5" fill="#1B2A4A" font-weight="bold" text-anchor="start" font-style="normal">Vendor / Sub Coordination</text><rect x="1279" y="286" width="32" height="2.5" rx="1" fill="#C8A951"/><text x="1279" y="314" font-family="Arial, Helvetica, sans-serif" font-size="11.5" fill="#5A6577" font-weight="normal" text-anchor="start" font-style="normal">Subcontractor outreach and</text><text x="1279" y="332" font-family="Arial, Helvetica, sans-serif" font-size="11.5" fill="#5A6577" font-weight="normal" text-anchor="start" font-style="normal">bid comparison, organized.</text><rect x="1279" y="366" width="141.7" height="22" rx="11" fill="#ECEFF3"/><text x="1349.85" y="381" font-family="Arial, Helvetica, sans-serif" font-size="10.5" fill="#5A6577" font-weight="600" text-anchor="middle" font-style="normal">Coordination active</text><rect x="288" y="434" width="303" height="236" rx="10" fill="#FFFFFF" stroke="#DCE1E8" stroke-width="1"/><rect x="310" y="458" width="40" height="40" rx="9" fill="#ECEFF3"/><circle cx="330" cy="478" r="8" fill="none" stroke="#1B2A4A" stroke-width="1.8" stroke-linecap="round" stroke-linejoin="round"/><path d="M 326 478 L 329 481.5 L 335 474" fill="none" stroke="#1B2A4A" stroke-width="1.8" stroke-linecap="round" stroke-linejoin="round"/><text x="571" y="472" font-family="Arial, Helvetica, sans-serif" font-size="12.5" fill="#8A93A3" font-weight="bold" text-anchor="end" font-style="normal">05</text><text x="310" y="534" font-family="Arial, Helvetica, sans-serif" font-size="14.5" fill="#1B2A4A" font-weight="bold" text-anchor="start" font-style="normal">Approvals</text><rect x="310" y="544" width="32" height="2.5" rx="1" fill="#C8A951"/><text x="310" y="572" font-family="Arial, Helvetica, sans-serif" font-size="11.5" fill="#5A6577" font-weight="normal" text-anchor="start" font-style="normal">Review and sign-off steps</text><text x="310" y="590" font-family="Arial, Helvetica, sans-serif" font-size="11.5" fill="#5A6577" font-weight="normal" text-anchor="start" font-style="normal">tracked to completion.</text><rect x="310" y="624" width="78.69999999999999" height="22" rx="11" fill="#ECEFF3"/><text x="349.35" y="639" font-family="Arial, Helvetica, sans-serif" font-size="10.5" fill="#5A6577" font-weight="600" text-anchor="middle" font-style="normal">3 pending</text><rect x="611" y="434" width="303" height="236" rx="10" fill="#FFFFFF" stroke="#DCE1E8" stroke-width="1"/><rect x="633" y="458" width="40" height="40" rx="9" fill="#ECEFF3"/><line x1="647" y1="485" x2="661" y2="485" fill="none" stroke="#1B2A4A" stroke-width="1.8" stroke-linecap="round" stroke-linejoin="round"/><rect x="647" y="479" width="3.5" height="6" fill="none" stroke="#1B2A4A" stroke-width="1.8" stroke-linecap="round" stroke-linejoin="round"/><rect x="651" y="474" width="3.5" height="11" fill="none" stroke="#1B2A4A" stroke-width="1.8" stroke-linecap="round" stroke-linejoin="round"/><rect x="658" y="472" width="3.5" height="13" fill="none" stroke="#1B2A4A" stroke-width="1.8" stroke-linecap="round" stroke-linejoin="round"/><text x="894" y="472" font-family="Arial, Helvetica, sans-serif" font-size="12.5" fill="#8A93A3" font-weight="bold" text-anchor="end" font-style="normal">06</text><text x="633" y="534" font-family="Arial, Helvetica, sans-serif" font-size="14.5" fill="#1B2A4A" font-weight="bold" text-anchor="start" font-style="normal">Budget / Draw Tracking</text><rect x="633" y="544" width="32" height="2.5" rx="1" fill="#C8A951"/><text x="633" y="572" font-family="Arial, Helvetica, sans-serif" font-size="11.5" fill="#5A6577" font-weight="normal" text-anchor="start" font-style="normal">Budget and draw status</text><text x="633" y="590" font-family="Arial, Helvetica, sans-serif" font-size="11.5" fill="#5A6577" font-weight="normal" text-anchor="start" font-style="normal">followed across the project.</text><rect x="633" y="624" width="103.89999999999999" height="22" rx="11" fill="#ECEFF3"/><text x="684.95" y="639" font-family="Arial, Helvetica, sans-serif" font-size="10.5" fill="#5A6577" font-weight="600" text-anchor="middle" font-style="normal">Within budget</text><rect x="934" y="434" width="303" height="236" rx="10" fill="#FFFFFF" stroke="#DCE1E8" stroke-width="1"/><rect x="956" y="458" width="40" height="40" rx="9" fill="#ECEFF3"/><polyline points="969,481 974,476 978,479 983,473" fill="none" stroke="#1B2A4A" stroke-width="1.8" stroke-linecap="round" stroke-linejoin="round"/><line x1="969" y1="485" x2="984" y2="485" fill="none" stroke="#1B2A4A" stroke-width="1.8" stroke-linecap="round" stroke-linejoin="round"/><line x1="969" y1="470" x2="969" y2="485" fill="none" stroke="#1B2A4A" stroke-width="1.8" stroke-linecap="round" stroke-linejoin="round"/><text x="1217" y="472" font-family="Arial, Helvetica, sans-serif" font-size="12.5" fill="#8A93A3" font-weight="bold" text-anchor="end" font-style="normal">07</text><text x="956" y="534" font-family="Arial, Helvetica, sans-serif" font-size="14.5" fill="#1B2A4A" font-weight="bold" text-anchor="start" font-style="normal">Reporting</text><rect x="956" y="544" width="32" height="2.5" rx="1" fill="#C8A951"/><text x="956" y="572" font-family="Arial, Helvetica, sans-serif" font-size="11.5" fill="#5A6577" font-weight="normal" text-anchor="start" font-style="normal">Project and operational</text><text x="956" y="590" font-family="Arial, Helvetica, sans-serif" font-size="11.5" fill="#5A6577" font-weight="normal" text-anchor="start" font-style="normal">status, at a glance.</text><rect x="956" y="624" width="135.39999999999998" height="22" rx="11" fill="#ECEFF3"/><text x="1023.7" y="639" font-family="Arial, Helvetica, sans-serif" font-size="10.5" fill="#5A6577" font-weight="600" text-anchor="middle" font-style="normal">Report draft ready</text><rect x="1257" y="434" width="303" height="236" rx="10" fill="#FFFFFF" stroke="#DCE1E8" stroke-width="1"/><rect x="1279" y="458" width="40" height="40" rx="9" fill="#ECEFF3"/><circle cx="1299" cy="478" r="8" fill="none" stroke="#1B2A4A" stroke-width="1.8" stroke-linecap="round" stroke-linejoin="round"/><path d="M 1296 478 L 1302 478 M 1299 475 L 1302 478 L 1299 481" fill="none" stroke="#1B2A4A" stroke-width="1.8" stroke-linecap="round" stroke-linejoin="round"/><text x="1540" y="472" font-family="Arial, Helvetica, sans-serif" font-size="12.5" fill="#8A93A3" font-weight="bold" text-anchor="end" font-style="normal">08</text><text x="1279" y="534" font-family="Arial, Helvetica, sans-serif" font-size="14.5" fill="#1B2A4A" font-weight="bold" text-anchor="start" font-style="normal">Next Actions</text><rect x="1279" y="544" width="32" height="2.5" rx="1" fill="#C8A951"/><text x="1279" y="572" font-family="Arial, Helvetica, sans-serif" font-size="11.5" fill="#5A6577" font-weight="normal" text-anchor="start" font-style="normal">What needs attention,</text><text x="1279" y="590" font-family="Arial, Helvetica, sans-serif" font-size="11.5" fill="#5A6577" font-weight="normal" text-anchor="start" font-style="normal">surfaced for the team.</text><rect x="1279" y="624" width="110.2" height="22" rx="11" fill="#ECEFF3"/><text x="1334.1" y="639" font-family="Arial, Helvetica, sans-serif" font-size="10.5" fill="#5A6577" font-weight="600" text-anchor="middle" font-style="normal">5 active tasks</text><rect x="288" y="704" width="1272" height="238" rx="10" fill="#FFFFFF" stroke="#DCE1E8" stroke-width="1"/><text x="314" y="740" font-family="Arial, Helvetica, sans-serif" font-size="15" fill="#1B2A4A" font-weight="bold" text-anchor="start" font-style="normal">Market context</text><rect x="314" y="750" width="32" height="2.5" rx="1" fill="#C8A951"/><text x="458" y="740" font-family="Arial, Helvetica, sans-serif" font-size="11.5" fill="#5A6577" font-weight="normal" text-anchor="start" font-style="normal">Recent material and labor movement, for coordination awareness.</text><rect x="314.0" y="774" width="288.5" height="142" rx="8" fill="#F7F8FA"/><text x="330.0" y="802" font-family="Arial, Helvetica, sans-serif" font-size="12.5" fill="#1B2A4A" font-weight="bold" text-anchor="start" font-style="normal">Copper</text><polyline points="330.0,835.6 372.8,834.5 415.5,835.3 458.2,831.7 501.0,830.0 543.8,826.6 586.5,825.0" fill="none" stroke="#C8A951" stroke-width="1.8" stroke-linecap="round" stroke-linejoin="round"/><text x="330.0" y="866" font-family="Arial, Helvetica, sans-serif" font-size="11" fill="#C8A951" font-weight="600" text-anchor="start" font-style="normal">Rising</text><rect x="624.5" y="774" width="288.5" height="142" rx="8" fill="#F7F8FA"/><text x="640.5" y="802" font-family="Arial, Helvetica, sans-serif" font-size="12.5" fill="#1B2A4A" font-weight="bold" text-anchor="start" font-style="normal">Structural steel</text><polyline points="640.5,828.6 683.2,827.2 726.0,828.0 768.8,826.1 811.5,826.9 854.2,825.2 897.0,824.7" fill="none" stroke="#C8A951" stroke-width="1.8" stroke-linecap="round" stroke-linejoin="round"/><text x="640.5" y="866" font-family="Arial, Helvetica, sans-serif" font-size="11" fill="#C8A951" font-weight="600" text-anchor="start" font-style="normal">Elevated</text><rect x="935.0" y="774" width="288.5" height="142" rx="8" fill="#F7F8FA"/><text x="951.0" y="802" font-family="Arial, Helvetica, sans-serif" font-size="12.5" fill="#1B2A4A" font-weight="bold" text-anchor="start" font-style="normal">Lumber</text><polyline points="951.0,824.4 993.8,825.5 1036.5,825.0 1079.2,828.3 1122.0,830.0 1164.8,831.1 1207.5,832.5" fill="none" stroke="#5A6577" stroke-width="1.8" stroke-linecap="round" stroke-linejoin="round"/><text x="951.0" y="866" font-family="Arial, Helvetica, sans-serif" font-size="11" fill="#5A6577" font-weight="600" text-anchor="start" font-style="normal">Easing</text><rect x="1245.5" y="774" width="288.5" height="142" rx="8" fill="#F7F8FA"/><text x="1261.5" y="802" font-family="Arial, Helvetica, sans-serif" font-size="12.5" fill="#1B2A4A" font-weight="bold" text-anchor="start" font-style="normal">Regional labor</text><polyline points="1261.5,832.8 1304.2,832.0 1347.0,830.0 1389.8,829.4 1432.5,827.2 1475.2,825.8 1518.0,823.8" fill="none" stroke="#C8A951" stroke-width="1.8" stroke-linecap="round" stroke-linejoin="round"/><text x="1261.5" y="866" font-family="Arial, Helvetica, sans-serif" font-size="11" fill="#C8A951" font-weight="600" text-anchor="start" font-style="normal">Tightening</text><text x="1568" y="974" font-family="Arial, Helvetica, sans-serif" font-size="11" fill="#8A93A3" font-weight="normal" text-anchor="end" font-style="italic">Illustrative concept. Not a deployed product.</text></svg>